HIERARCHY
ROOT RootJoint
{
    OFFSET   0.000000   0.000000   0.000000
    CHANNELS 6 Xposition Yposition Zposition Xrotation Yrotation Zrotation
    JOINT pelvis_lowerback
    {
        OFFSET   0.000000   0.093605   0.000000
        CHANNELS 3 Xrotation Yrotation Zrotation
        JOINT lowerback_torso
        {
            OFFSET   0.000000   0.100000   0.000000
            CHANNELS 3 Xrotation Yrotation Zrotation
            JOINT torso_head
            {
                OFFSET   0.000000   0.282350   0.000000
                CHANNELS 3 Xrotation Yrotation Zrotation
                End Site
                {
                    OFFSET   0.000000   0.192650   0.000000
                }
            }
            JOINT rTorso_Clavicle
            {
                OFFSET  -0.001000   0.157500   0.000000
                CHANNELS 3 Xrotation Yrotation Zrotation
                JOINT rShoulder
                {
                    OFFSET  -0.117647   0.000000   0.000000
                    CHANNELS 3 Xrotation Yrotation Zrotation
                    JOINT rElbow
                    {
                        OFFSET  -0.245000   0.000000   0.000000
                        CHANNELS 3 Xrotation Yrotation Zrotation
                        JOINT rWrist
                        {
                            OFFSET  -0.240000   0.000000   0.000000
                            CHANNELS 3 Xrotation Yrotation Zrotation
                            End Site
                            {
                                OFFSET  -0.116353  -0.002500   0.000000
                            }
                        }
                    }
                }
            }
            JOINT lTorso_Clavicle
            {
                OFFSET   0.001000   0.157500   0.000000
                CHANNELS 3 Xrotation Yrotation Zrotation
                JOINT lShoulder
                {
                    OFFSET   0.117647   0.000000   0.000000
                    CHANNELS 3 Xrotation Yrotation Zrotation
                    JOINT lElbow
                    {
                        OFFSET   0.245000   0.000000   0.000000
                        CHANNELS 3 Xrotation Yrotation Zrotation
                        JOINT lWrist
                        {
                            OFFSET   0.240000   0.000000   0.000000
                            CHANNELS 3 Xrotation Yrotation Zrotation
                            End Site
                            {
                                OFFSET   0.116353  -0.002500   0.000000
                            }
                        }
                    }
                }
            }
        }
    }
    JOINT rHip
    {
        OFFSET  -0.100000  -0.051395   0.000000
        CHANNELS 3 Xrotation Yrotation Zrotation
        JOINT rKnee
        {
            OFFSET   0.000000  -0.410000   0.000000
            CHANNELS 3 Xrotation Yrotation Zrotation
            JOINT rAnkle
            {
                OFFSET   0.000000  -0.390000   0.000000
                CHANNELS 3 Xrotation Yrotation Zrotation
                JOINT rToeJoint
                {
                    OFFSET   0.000000  -0.050000   0.130000
                    CHANNELS 3 Xrotation Yrotation Zrotation
                    End Site
                    {
                        OFFSET  -0.010000   0.002000   0.060000
                    }
                }
            }
        }
    }
    JOINT lHip
    {
        OFFSET   0.100000  -0.051395   0.000000
        CHANNELS 3 Xrotation Yrotation Zrotation
        JOINT lKnee
        {
            OFFSET   0.000000  -0.410000   0.000000
            CHANNELS 3 Xrotation Yrotation Zrotation
            JOINT lAnkle
            {
                OFFSET   0.000000  -0.390000   0.000000
                CHANNELS 3 Xrotation Yrotation Zrotation
                JOINT lToeJoint
                {
                    OFFSET   0.000000  -0.050000   0.130000
                    CHANNELS 3 Xrotation Yrotation Zrotation
                    End Site
                    {
                        OFFSET   0.010000   0.002000   0.060000
                    }
                }
            }
        }
    }
}
MOTION
Frames: 10
Frame Time:   0.008333
 -1.591574   0.864403   3.830998  -3.064636 -15.098334   4.899325   4.834010   4.518427  -2.103234  -3.135491   2.174055   0.539626  -1.354478   3.851689   1.102419  -2.271384  11.836176  -6.903050  -5.453712  39.635874  20.592662 179.999828  82.690127 -179.999815 -10.376670   9.608448   3.087986  -4.611960  -3.499240   9.137740 -32.408485   8.344861 -12.085418  -0.000030 -42.242507  -0.000053 -18.268344  -9.297342  14.823244   8.642476   0.666629  -8.696104  31.404263   0.001406   0.000417 -29.169922  -1.208260   1.239044 -13.120786   0.000904   0.002168 -22.873588  -0.973718   1.299350  30.059037   0.000525  -0.000032  -4.432737   5.781441  -3.740297   1.326182  -0.000630  -0.000194
 -1.592682   0.864375   3.826030  -3.138451 -15.133446   4.830903   4.901967   4.484136  -1.981768  -3.184506   2.126343   0.577710  -1.350631   3.869495   1.028627  -2.249583  11.841298  -6.934064  -5.316147  39.712395  20.578387 179.999873  82.702727 -179.999873 -10.376997   9.608053   3.090136  -4.632641  -3.397311   9.025675 -32.257684   8.328212 -12.101788  -0.000029 -42.236366  -0.000048 -18.236759  -9.319119  14.830403   8.486229   0.680888  -8.489442  31.319193   0.001247   0.000309 -29.730448  -1.201342   1.153461 -11.676638  -0.000311   0.001145 -22.891069  -1.077320   1.499881  29.637774   0.001083   0.000059  -4.135528   5.730810  -3.840341   1.517239  -0.000602  -0.000318
 -1.593816   0.864592   3.821199  -3.185169 -15.146744   4.756935   4.945327   4.444927  -1.857925  -3.245637   2.075562   0.622512  -1.350526   3.884538   0.961340  -2.226752  11.838864  -6.971810  -5.182822  39.778367  20.562336 179.999911  82.718392 -179.999921 -10.377743   9.607210   3.094764  -4.650581  -3.295885   8.925591 -32.114606   8.317132 -12.116620  -0.000029 -42.227740  -0.000046 -18.211416  -9.321588  14.828025   8.311590   0.701309  -8.263794  31.206462   0.001150   0.000191 -30.137871  -1.173253   1.049245 -10.089839  -0.001278   0.000945 -22.868440  -1.184420   1.707505  29.114509   0.001657   0.000088  -3.900544   5.682291  -3.921512   1.697516  -0.000579  -0.000391
 -1.594944   0.864892   3.816490  -3.214828 -15.153151   4.685270   4.977659   4.408850  -1.738076  -3.313406   2.027439   0.667906  -1.351146   3.898494   0.898672  -2.212784  11.833708  -7.017925  -5.061020  39.836303  20.540839 179.999938  82.733974 -179.999952 -10.376641   9.608386   3.088247  -4.668191  -3.199261   8.844790 -31.982614   8.305224 -12.123823  -0.000026 -42.218914  -0.000043 -18.189633  -9.315025  14.829577   8.126365   0.712875  -8.036388  31.080917   0.001089   0.000092 -30.472853  -1.150842   0.946436  -8.951990  -0.001728   0.000705 -22.829430  -1.286305   1.914352  28.549847   0.002148   0.000087  -3.707944   5.637734  -3.990872   1.858818  -0.000553  -0.000423
 -1.596047   0.865198   3.811908  -3.235976 -15.152562   4.616004   5.004032   4.375128  -1.621692  -3.383399   1.982089   0.713580  -1.351237   3.911523   0.839769  -2.207458  11.827903  -7.069651  -4.951088  39.888172  20.515153 179.999955  82.748926 -179.999968 -10.373356   9.611937   3.068582  -4.685895  -3.108928   8.781319 -31.861645   8.290776 -12.123869  -0.000021 -42.211260  -0.000038 -18.168433  -9.309836  14.837824   7.940453   0.722738  -7.811459  30.950063   0.001042   0.000007 -30.771893  -1.127856   0.847561  -7.893264  -0.002046   0.000576 -22.784275  -1.383363   2.116941  27.975579   0.002523   0.000061  -3.544920   5.596329  -4.051170   2.004297  -0.000525  -0.000428
 -1.597115   0.865476   3.807464  -3.254361 -15.144872   4.548494   5.026620   4.343468  -1.508000  -3.452961   1.939246   0.760109  -1.350664   3.923695   0.784451  -2.208229  11.822203  -7.123717  -4.851505  39.935294  20.487299 179.999961  82.763074 -179.999972 -10.368386   9.617304   3.038823  -4.703564  -3.025238   8.731543 -31.750741   8.273892 -12.118599  -0.000016 -42.205132  -0.000033 -18.146622  -9.310218  14.851630   7.759039   0.731588  -7.590989  30.820175   0.000994  -0.000066 -31.050809  -1.104804   0.755522  -6.893926  -0.002285   0.000534 -22.736957  -1.475441   2.313723  27.408727   0.002777   0.000011  -3.403887   5.557640  -4.104242   2.136286  -0.000494  -0.000413
 -1.598140   0.865709   3.803166  -3.273405 -15.130101   4.482366   5.046249   4.313691  -1.396439  -3.520689   1.898674   0.807845  -1.349623   3.935070   0.732657  -2.212640  11.816794  -7.177660  -4.760561  39.978534  20.458900 179.999959  82.776359 -179.999968 -10.362370   9.623792   3.002819  -4.720961  -2.947948   8.692085 -31.648807   8.255252 -12.109778  -0.000011 -42.200445  -0.000028 -18.124009  -9.316770  14.869212   7.585157   0.739569  -7.376242  30.695021   0.000941  -0.000126 -31.317409  -1.082108   0.671117  -5.962085  -0.002452   0.000553 -22.689236  -1.562350   2.503658  26.858615   0.002924  -0.000060  -3.280074   5.521399  -4.151366   2.256463  -0.000462  -0.000384
 -1.599172   0.866056   3.799145  -3.323745 -15.124730   4.430322   5.096435   4.277706  -1.322110  -3.603773   1.879999   0.858518  -1.321427   3.930295   0.670057  -2.215161  11.773285  -7.259231  -4.629574  40.039426  20.437407 -179.999904  82.824912 179.999903 -10.358297   9.628188   2.978409  -4.770467  -2.871291   8.674207 -31.594929   8.261386 -12.113774   0.000010 -42.184002  -0.000008 -18.104680  -9.314173  14.854062   7.507883   0.757459  -7.178098  30.476042   0.001005  -0.000260 -31.547281  -1.112990   0.543821  -5.030092  -0.002264   0.000278 -22.537939  -1.588673   2.683549  26.193191   0.003111  -0.000353  -3.036238   5.423202  -4.242169   2.228213  -0.000366  -0.000290
 -1.600153   0.866426   3.795299  -3.361226 -15.121390   4.384959   5.133181   4.244258  -1.251124  -3.690126   1.863973   0.903556  -1.293955   3.925554   0.609062  -2.216359  11.722946  -7.344532  -4.500336  40.089272  20.410370 -179.999791  82.873902 179.999801 -10.358016   9.628473   2.976823  -4.820138  -2.789844   8.667314 -31.547535   8.271040 -12.108257   0.000032 -42.166689   0.000012 -18.089950  -9.304820  14.864813   7.432212   0.772297  -6.990244  30.243074   0.001066  -0.000363 -31.747224  -1.147751   0.416885  -4.162575  -0.002045   0.000001 -22.389123  -1.605167   2.855457  25.532549   0.003216  -0.000583  -2.819416   5.332562  -4.326751   2.208978  -0.000290  -0.000221
 -1.601077   0.866804   3.791610  -3.391369 -15.117445   4.346018   5.163031   4.213150  -1.184437  -3.776710   1.849360   0.945443  -1.268419   3.921035   0.551138  -2.219532  11.670746  -7.428351  -4.378371  40.131220  20.381170 -179.999727  82.921061 179.999750 -10.358229   9.628228   2.978184  -4.868227  -2.708047   8.667393 -31.504930   8.281715 -12.096658   0.000052 -42.149705   0.000028 -18.076297  -9.294417  14.891622   7.356392   0.786375  -6.814456  30.010376   0.001101  -0.000439 -31.922240  -1.180580   0.294192  -3.357816  -0.001835  -0.000198 -22.245998  -1.611698   3.008178  24.923671   0.003159  -0.000738  -2.613269   5.249292  -4.409294   2.187228  -0.000232  -0.000166
